<?xml version="1.0" encoding="utf-8"?>
<svg xmlns="http://www.w3.org/2000/svg" width="720" height="714" viewBox="0 0 720 714" version="1.1" xmlns:bx="https://boxy-svg.com">
  <path d="M 526 213.536 C 525.175 213.703 516.4 214.384 506.5 215.048 C 489.04 216.22 486 216.878 486 219.487 C 486 220.17 489.398 224.061 493.55 228.134 L 501.1 235.538 L 493.3 242.974 C 484.955 250.93 467.434 267.754 451.974 282.657 L 442.475 291.814 L 438.988 288.767 C 435.431 285.66 428.684 279.416 416.816 268.25 C 406.775 258.803 406.936 258.756 387.961 276.758 C 379.414 284.866 365.956 297.575 358.053 305 C 334.24 327.375 334 327.637 334 331.299 C 334 335.765 336.393 338.795 340.533 339.572 C 344.401 340.298 346.774 339.118 352.25 333.746 C 354.972 331.076 383.287 305.118 402 288.137 C 404.475 285.891 406.95 284.052 407.5 284.051 C 408.05 284.049 411.892 287.299 416.038 291.274 C 420.183 295.248 427.2 301.762 431.63 305.75 C 443.252 316.212 442.963 316.271 460.5 299.821 C 468.2 292.599 480.575 281.022 488 274.095 C 495.425 267.168 504.348 258.786 507.829 255.468 L 514.158 249.437 L 521.228 256.218 C 525.116 259.948 528.915 263 529.67 263 C 530.425 263 531.459 261.988 531.968 260.75 C 533.269 257.584 539.165 215.076 538.461 213.937 C 537.932 213.08 529.576 212.811 526 213.536" stroke="none" fill-rule="evenodd" fill="#311767"/>
  <path d="M 550 448.5 C 550 448.775 550.225 449 550.5 449 C 550.775 449 551 448.775 551 448.5 C 551 448.225 550.775 448 550.5 448 C 550.225 448 550 448.225 550 448.5" stroke="none" fill-rule="evenodd" fill="#311767"/>
  <path d="M 257.327 419.798 L 250.159 437.5 L 264.218 437.778 C 271.95 437.931 278.46 437.873 278.685 437.648 C 279.108 437.226 266.174 404.042 265.101 402.798 C 264.769 402.412 261.27 410.062 257.327 419.798" stroke="none" fill-rule="evenodd" fill="#311767"/>
  <path d="M 565.344 391.991 C 549.22 395.376 538.983 410.463 540.265 428.95 C 541.416 445.539 550.875 456.829 567.248 461.158 C 570.975 462.144 573.212 462.159 577.653 461.227 C 589.155 458.815 597.004 452.733 601.66 442.626 C 604.169 437.181 604.48 435.388 604.457 426.5 C 604.433 417.209 604.195 416.026 601.11 409.815 C 597.396 402.339 593.183 398.013 586.208 394.513 C 580.847 391.824 571.516 390.696 565.344 391.991" stroke="none" fill-rule="evenodd" fill="#311767"/>
  <path d="M 443.526 371.958 C 442.769 373.182 442.84 479.173 443.598 479.933 C 444.716 481.053 509.906 481.121 511.993 480.004 C 513.794 479.04 514 477.917 514 469.072 C 514 461.005 513.713 459.104 512.418 458.607 C 511.548 458.273 501.198 458 489.418 458 L 468 458 L 468 415.7 C 468 384.133 467.696 373.096 466.8 372.2 C 465.339 370.739 444.414 370.522 443.526 371.958" stroke="none" fill-rule="evenodd" fill="#311767"/>
  <path d="M 400 371.5 C 400 371.775 400.225 372 400.5 372 C 400.775 372 401 371.775 401 371.5 C 401 371.225 400.775 371 400.5 371 C 400.225 371 400 371.225 400 371.5" stroke="none" fill-rule="evenodd" fill="#311767"/>
  <path d="M 332.2 372.2 C 330.469 373.931 330.469 478.069 332.2 479.8 C 333.456 481.056 350.452 481.531 353.418 480.393 C 354.817 479.856 355 475.907 355 446.243 L 355 412.7 L 358.25 417.054 C 360.038 419.449 370.979 434.704 382.565 450.954 L 403.629 480.5 L 412.565 480.794 C 417.479 480.956 422.512 480.835 423.75 480.525 L 426 479.962 L 426 426.088 C 426 377.884 425.834 372.15 424.418 371.607 C 421.171 370.361 403.29 370.946 402.136 372.336 C 401.387 373.238 400.942 384.282 400.764 406.4 L 400.5 439.129 L 376.207 405.065 L 351.913 371 L 342.657 371 C 336.79 371 332.96 371.44 332.2 372.2" stroke="none" fill-rule="evenodd" fill="#311767"/>
  <path d="M 252.268 372.25 C 251.731 372.938 248.045 381.6 244.076 391.5 C 240.108 401.4 236.258 410.85 235.522 412.5 C 234.786 414.15 232.603 419.55 230.671 424.5 C 228.738 429.45 223.257 442.95 218.491 454.5 C 208.164 479.526 208.346 478.972 210.107 480.087 C 210.873 480.572 216.08 480.976 221.679 480.985 C 232.676 481.001 234.382 480.311 235.629 475.342 C 235.977 473.957 237.525 469.826 239.071 466.162 L 241.88 459.5 L 264.322 459.213 L 286.764 458.925 L 290.501 468.713 C 292.557 474.096 294.946 479.063 295.81 479.75 C 296.847 480.574 301.028 481 308.084 481 C 320.756 481 321.139 480.646 317.583 472.195 C 316.265 469.063 308.133 448.95 299.513 427.5 C 290.893 406.05 283.244 387.15 282.515 385.5 C 281.785 383.85 280.402 380.341 279.44 377.703 C 278.479 375.064 276.891 372.477 275.912 371.953 C 273.178 370.49 253.45 370.738 252.268 372.25" stroke="none" fill-rule="evenodd" fill="#311767"/>
  <path d="M 101.2 372.2 C 99.469 373.931 99.469 478.069 101.2 479.8 C 102.459 481.059 121.422 481.543 124.418 480.393 C 125.792 479.866 126 476.978 126 458.393 L 126 437 L 149.48 437 L 172.961 437 L 173.23 458.75 L 173.5 480.5 L 184.355 480.785 C 191.502 480.972 195.687 480.674 196.605 479.912 C 198.683 478.188 198.683 373.812 196.605 372.088 C 195.687 371.326 191.502 371.028 184.355 371.215 L 173.5 371.5 L 173.23 392.75 L 172.96 414 L 149.48 414 L 126 414 L 126 393.7 C 126 379.244 125.655 373.055 124.8 372.2 C 124.018 371.418 119.911 371 113 371 C 106.089 371 101.982 371.418 101.2 372.2" stroke="none" fill-rule="evenodd" fill="#311767"/>
  <path d="M 559.727 370.535 C 549.302 372.609 538.539 378.269 531.448 385.408 C 520.075 396.857 515.578 408.325 515.531 426 C 515.506 435.391 515.921 438.755 517.793 444.343 C 523.681 461.913 536.127 474.377 553.539 480.142 C 562.853 483.225 581.607 483.48 590 480.637 C 599.464 477.431 607.409 472.387 613.864 465.486 C 624.997 453.585 629.605 440.53 628.75 423.317 C 627.378 395.7 609.986 375.585 583.14 370.564 C 573.288 368.721 568.874 368.716 559.727 370.535" stroke="none" fill-rule="evenodd" fill="#311767"/>
  <path d="M 512 353.5 C 512 353.775 512.225 354 512.5 354 C 512.775 354 513 353.775 513 353.5 C 513 353.225 512.775 353 512.5 353 C 512.225 353 512 353.225 512 353.5" stroke="none" fill-rule="evenodd" fill="#311767"/>
  <path d="M 443.655 332.829 C 442.342 334.28 442 336.772 442 344.894 C 442 359.456 441.536 359 456.335 359 C 464.541 359 468.997 358.603 469.8 357.8 C 471.535 356.065 471.374 335.076 469.608 332.75 C 468.478 331.262 466.56 331 456.795 331 C 446.938 331 445.075 331.259 443.655 332.829" stroke="none" fill-rule="evenodd" fill="#311767"/>
  <path d="M 400.2 325.2 C 399.369 326.031 399 331.223 399 342.102 L 399 357.804 L 401.875 358.807 C 406.127 360.289 423.353 359.782 425.36 358.116 C 426.741 356.97 427 354.478 427 342.312 C 427 334.268 426.541 327.011 425.965 325.934 C 425.031 324.19 423.773 324 413.165 324 C 405.348 324 400.997 324.403 400.2 325.2" stroke="none" fill-rule="evenodd" fill="#311767"/>
  <path d="M 487.2 283.2 C 485.479 284.921 485.479 356.079 487.2 357.8 C 488.855 359.455 511.145 359.455 512.8 357.8 C 514.521 356.079 514.521 284.921 512.8 283.2 C 512.005 282.405 507.689 282 500 282 C 492.311 282 487.995 282.405 487.2 283.2" stroke="none" fill-rule="evenodd" style="fill: rgb(181, 221, 42);"/>
  <path d="M 425 274.5 C 425 274.775 425.225 275 425.5 275 C 425.775 275 426 274.775 426 274.5 C 426 274.225 425.775 274 425.5 274 C 425.225 274 425 274.225 425 274.5" stroke="none" fill-rule="evenodd" fill="#311767"/>
  <path d="M 497 270.5 C 497 270.775 497.225 271 497.5 271 C 497.775 271 498 270.775 498 270.5 C 498 270.225 497.775 270 497.5 270 C 497.225 270 497 270.225 497 270.5" stroke="none" fill-rule="evenodd" fill="#311767"/>
  <path d="M 263.925 393.32 L 279.34 436.296 L 248.51 436.296 L 263.925 393.32 Z" bx:shape="triangle 248.51 393.32 30.83 42.976 0.5 0 1@3fd7ae44" style="stroke: rgb(0, 0, 0); fill: rgb(255, 255, 255);"/>
  <ellipse style="stroke: rgb(0, 0, 0); fill: rgb(255, 255, 255);" cx="571.293" cy="424.617" rx="35.035" ry="34.1"/>
</svg>
